<svg width="400" height="400" viewBox="0 0 400 400" fill="none" xmlns="http://www.w3.org/2000/svg">
<g clip-path="url(#clip0_109_63)">
<path d="M200 393.737C273.792 393.737 333.612 333.917 333.612 260.125H66.3883C66.3883 333.917 126.208 393.737 200 393.737Z" fill="#72CCC5"/>
<path d="M106.472 260.125H66.3883C66.3883 333.917 126.208 393.737 200 393.737C206.812 393.737 213.504 393.223 220.041 392.241C155.758 382.57 106.472 327.105 106.472 260.125Z" fill="#11BBA3"/>
<path d="M260.125 293.528V320.251L266.805 340.292L286.848 333.612L300.209 306.889V286.848L326.931 260.125H220.041L226.723 286.848L260.125 293.528Z" fill="#66BF00"/>
<path d="M146.555 260.125H66.3883C66.3883 322.655 109.345 375.145 167.356 389.713L166.597 387.056L159.916 360.334L179.958 346.973L186.638 320.25V286.847L166.597 280.166L146.555 260.125Z" fill="#66BF00"/>
<path d="M161.963 368.522C128.352 344.255 106.472 304.748 106.472 260.125H66.3883C66.3883 322.655 109.345 375.145 167.356 389.713L166.597 387.056L161.963 368.522Z" fill="#58AB23"/>
<path d="M200 61.5609C184.03 70.8023 173.277 88.0594 173.277 107.838C173.277 127.617 184.03 144.873 200 154.116C215.97 144.874 226.723 127.617 226.723 107.838C226.723 88.0586 215.97 70.8023 200 61.5609Z" fill="#66BF00"/>
<path d="M200 132.22C187.059 124.731 177.548 111.98 174.403 96.8899C173.666 100.423 173.277 104.085 173.277 107.837C173.277 127.616 184.03 144.871 200 154.114C215.97 144.873 226.723 127.616 226.723 107.837C226.723 104.084 226.334 100.423 225.597 96.8899C222.452 111.981 212.941 124.731 200 132.22Z" fill="#58AB23"/>
<path d="M298.395 141.688C280.567 136.931 260.763 141.53 246.777 155.516C232.791 169.502 228.192 189.306 232.949 207.134C250.777 211.892 270.582 207.293 284.568 193.307C298.554 179.321 303.152 159.516 298.395 141.688Z" fill="#66BF00"/>
<path d="M298.395 141.688C295.216 140.84 291.971 140.295 288.709 140.041C290.641 155.804 285.573 172.259 273.474 184.359C261.984 195.849 246.565 200.998 231.542 199.833C231.844 202.29 232.309 204.73 232.95 207.134C250.778 211.891 270.583 207.292 284.569 193.306C298.554 179.321 303.152 159.516 298.395 141.688Z" fill="#58AB23"/>
<path d="M101.605 141.688C119.432 136.931 139.237 141.53 153.223 155.516C167.209 169.502 171.808 189.306 167.051 207.134C149.223 211.892 129.418 207.293 115.432 193.307C101.446 179.321 96.8476 159.516 101.605 141.688Z" fill="#66BF00"/>
<path d="M126.526 184.359C114.426 172.259 109.359 155.804 111.291 140.042C108.029 140.295 104.784 140.841 101.605 141.689C96.8476 159.517 101.446 179.322 115.432 193.308C129.418 207.294 149.223 211.892 167.051 207.135C167.692 204.731 168.158 202.291 168.459 199.834C153.435 200.998 138.016 195.85 126.526 184.359Z" fill="#58AB23"/>
<path d="M340.292 86.4304C355.051 86.4304 367.015 74.4663 367.015 59.7078C367.015 44.9493 355.051 32.9851 340.292 32.9851C325.534 32.9851 313.57 44.9493 313.57 59.7078C313.57 74.4663 325.534 86.4304 340.292 86.4304Z" fill="#FC9C47"/>
<path d="M340.292 73.0688C347.671 73.0688 353.653 67.0869 353.653 59.7079C353.653 52.3288 347.671 46.3469 340.292 46.3469C332.913 46.3469 326.931 52.3288 326.931 59.7079C326.931 67.0869 332.913 73.0688 340.292 73.0688Z" fill="#FFC552"/>
<path d="M153.236 6.26331C171.684 6.26331 186.639 21.2188 186.639 39.6664H119.834C119.833 21.2188 134.788 6.26331 153.236 6.26331Z" fill="#E8E6D9"/>
<path d="M93.1109 12.9437C107.87 12.9437 119.834 24.9078 119.834 39.6664H66.3883C66.3883 24.9078 78.3523 12.9437 93.1109 12.9437Z" fill="#E8E6D9"/>
<path d="M93.1109 73.0687C111.559 73.0687 126.514 88.0242 126.514 106.472H59.7078C59.7078 88.0242 74.6633 73.0687 93.1109 73.0687Z" fill="#E8E6D9"/>
<path d="M32.9851 79.7493C47.7437 79.7493 59.7078 91.7133 59.7078 106.472H6.26328C6.26328 91.7133 18.2273 79.7493 32.9851 79.7493Z" fill="#E8E6D9"/>
<path d="M333.612 253.863H206.263V242.677L234.92 214.02C238.827 214.808 242.77 215.197 246.692 215.197C262.353 215.197 277.685 209.047 288.996 197.735C304.01 182.72 309.93 160.627 304.446 140.073C303.868 137.907 302.176 136.215 300.009 135.637C279.456 130.152 257.362 136.073 242.348 151.087C228.203 165.231 222.134 185.659 226.063 205.163L206.264 224.964V157.591C222.833 146.579 232.987 127.842 232.987 107.838C232.987 86.6047 221.549 66.7954 203.139 56.1407C201.198 55.0172 198.806 55.0172 196.864 56.1407C178.453 66.7946 167.016 86.6039 167.016 107.838C167.016 127.841 177.17 146.577 193.739 157.59V224.963L173.938 205.163C177.867 185.659 171.798 165.231 157.654 151.087C142.639 136.073 120.546 130.152 99.9922 135.637C97.8258 136.215 96.1336 137.907 95.5555 140.073C90.0719 160.626 95.9914 182.72 111.005 197.735C122.317 209.047 137.647 215.197 153.309 215.197C157.232 215.197 161.175 214.808 165.081 214.02L193.739 242.677V253.863H66.3883C62.9297 253.863 60.125 256.666 60.125 260.126C60.125 282.266 65.1484 303.444 75.057 323.073C76.6164 326.161 80.3828 327.401 83.4703 325.841C86.5586 324.283 87.7984 320.516 86.2391 317.428C78.1609 301.425 73.65 284.281 72.7992 266.388H143.961L162.168 284.595C162.855 285.283 163.694 285.801 164.616 286.109L180.375 291.362V319.48L174.469 343.105L156.442 355.123C154.24 356.591 153.198 359.284 153.84 361.852L158.508 380.527C137.302 373.22 118.163 360.359 103.216 342.898C100.966 340.27 97.0117 339.964 94.3844 342.213C91.757 344.463 91.45 348.416 93.7 351.045C120.337 382.156 159.08 400 200 400C277.127 400 339.875 337.252 339.875 260.125C339.875 256.666 337.07 253.863 333.612 253.863ZM280.14 188.878C271.1 197.918 258.807 202.773 246.281 202.66L293.92 155.021C294.034 167.548 289.178 179.839 280.14 188.878ZM251.205 159.944C260.245 150.904 272.537 146.048 285.063 146.162L237.423 193.802C237.311 181.275 242.166 168.984 251.205 159.944ZM220.459 107.838C220.459 120.622 215.201 132.746 206.263 141.523V74.1508C215.201 82.9297 220.459 95.0539 220.459 107.838ZM179.541 107.838C179.541 95.0539 184.799 82.9297 193.737 74.1516V141.523C184.799 132.746 179.541 120.621 179.541 107.838ZM148.795 159.944C157.835 168.984 162.689 181.275 162.577 193.802L114.937 146.163C127.463 146.051 139.755 150.906 148.795 159.944ZM119.861 188.878C110.821 179.838 105.967 167.547 106.08 155.02L153.719 202.659C141.192 202.773 128.9 197.918 119.861 188.878ZM261.354 287.387L231.838 281.484L228.064 266.388H311.812L295.78 282.42C294.605 283.594 293.946 285.187 293.946 286.848V305.41L282.406 328.49L270.767 332.37L266.389 319.234V293.527C266.388 290.543 264.281 287.973 261.354 287.387ZM200 387.474C190.627 387.474 181.38 386.444 172.402 384.453L167.063 363.097L183.432 352.184C184.729 351.32 185.657 350.004 186.034 348.492L192.715 321.77C192.839 321.273 192.902 320.763 192.902 320.251V286.848C192.902 284.152 191.177 281.759 188.62 280.906L169.98 274.693L161.675 266.388H215.152L220.646 288.366C221.233 290.715 223.12 292.514 225.494 292.989L253.862 298.662V320.25C253.862 320.923 253.97 321.592 254.184 322.23L260.864 342.272C261.739 344.897 264.183 346.556 266.805 346.556C267.461 346.556 268.129 346.451 268.786 346.232L288.827 339.552C290.403 339.027 291.705 337.896 292.448 336.411L305.809 309.688C306.245 308.818 306.471 307.86 306.471 306.888V289.44L327.045 268.866C322.537 335.026 267.281 387.474 200 387.474Z" fill="black" fill-opacity="0.84"/>
<path d="M340.292 26.7227C322.104 26.7227 307.307 41.5203 307.307 59.7078C307.307 77.8953 322.105 92.693 340.292 92.693C358.48 92.693 373.277 77.8953 373.277 59.7078C373.277 41.5203 358.48 26.7227 340.292 26.7227ZM340.292 80.1672C329.011 80.1672 319.833 70.9891 319.833 59.7078C319.833 48.4266 329.011 39.2484 340.292 39.2484C351.573 39.2484 360.752 48.4266 360.752 59.7078C360.752 70.9891 351.573 80.1672 340.292 80.1672Z" fill="black" fill-opacity="0.84"/>
<path d="M340.292 19.207C343.751 19.207 346.555 16.4031 346.555 12.9438V6.26328C346.555 2.80469 343.752 0 340.292 0C336.834 0 334.029 2.80391 334.029 6.26328V12.9438C334.029 16.4023 336.834 19.207 340.292 19.207Z" fill="black"/>
<path d="M360.543 24.6328C363.502 26.3414 367.393 25.2945 369.098 22.3406L372.439 16.5555C374.169 13.5602 373.142 9.72969 370.147 8C367.152 6.26953 363.321 7.29687 361.591 10.2922L358.251 16.0773C356.521 19.0734 357.548 22.9039 360.543 24.6328Z" fill="black"/>
<path d="M380.797 42.5898C381.859 42.5898 382.937 42.3195 383.923 41.7499L389.708 38.4093C392.703 36.6796 393.73 32.8492 392 29.8539C390.27 26.8585 386.44 25.832 383.445 27.5617L377.659 30.9023C375.33 32.2476 374.099 35.0195 374.668 37.6492C375.286 40.4992 377.881 42.5898 380.797 42.5898Z" fill="black"/>
<path d="M393.737 53.4446H387.056C383.598 53.4446 380.793 56.2485 380.793 59.7079C380.793 63.1672 383.597 65.9711 387.056 65.9711H393.737C397.195 65.9711 400 63.1672 400 59.7079C400 56.2485 397.196 53.4446 393.737 53.4446Z" fill="black"/>
<path d="M389.709 81.0063L383.923 77.6656C380.928 75.9352 377.098 76.9625 375.368 79.9578C373.638 82.9531 374.665 86.7836 377.66 88.5133L383.445 91.8539C386.641 93.6992 390.839 92.3078 392.316 88.9375C393.58 86.0539 392.434 82.5789 389.709 81.0063Z" fill="black"/>
<path d="M369.098 97.0758C367.369 94.0797 363.537 93.0531 360.543 94.7836C357.548 96.5133 356.521 100.344 358.251 103.339L361.591 109.124C363.432 112.313 367.761 113.22 370.732 111.035C373.269 109.17 374.012 105.586 372.44 102.862L369.098 97.0758Z" fill="black"/>
<path d="M313.564 112.256C315.729 112.256 317.834 111.132 318.994 109.124L322.334 103.339C324.064 100.344 323.038 96.5133 320.042 94.7836C317.047 93.0531 313.216 94.0804 311.487 97.0758L308.146 102.861C305.785 106.949 308.814 112.256 313.564 112.256Z" fill="black"/>
<path d="M296.662 77.6656L290.877 81.0062C288.152 82.5789 287.005 86.0539 288.269 88.9382C289.746 92.3086 293.945 93.7 297.14 91.8546L302.925 88.514C305.92 86.7843 306.947 82.9539 305.217 79.9586C303.487 76.9617 299.658 75.9367 296.662 77.6656Z" fill="black"/>
<path d="M286.848 65.9711H293.528C296.987 65.9711 299.791 63.1672 299.791 59.7079C299.791 56.2485 296.987 53.4446 293.528 53.4446H286.848C283.434 53.4446 280.584 56.2946 280.584 59.7079C280.584 63.1211 283.434 65.9711 286.848 65.9711Z" fill="black"/>
<path d="M290.876 38.4094L296.661 41.75C299.856 43.5953 304.055 42.2039 305.532 38.8336C306.796 35.95 305.649 32.4742 302.924 30.9015L297.139 27.5609C294.143 25.8304 290.313 26.8578 288.584 29.8531C286.854 32.8484 287.88 36.6797 290.876 38.4094Z" fill="black"/>
<path d="M311.487 22.3399C313.327 25.5281 317.656 26.4352 320.627 24.2508C323.164 22.3852 323.908 18.8016 322.335 16.0774L318.995 10.2922C317.265 7.29689 313.434 6.27033 310.439 8.00002C307.444 9.72971 306.417 13.5602 308.147 16.5555L311.487 22.3399Z" fill="black"/>
<path d="M340.292 100.209C336.834 100.209 334.029 103.013 334.029 106.472V113.152C334.029 116.611 336.833 119.416 340.292 119.416C343.751 119.416 346.555 116.612 346.555 113.152V106.472C346.555 103.013 343.751 100.209 340.292 100.209Z" fill="black"/>
<path d="M66.3883 45.9289H186.639C190.098 45.9289 192.902 43.125 192.902 39.6656C192.902 17.7945 175.107 0 153.236 0C138.75 0 126.059 7.80938 119.136 19.4352C113.095 11.6813 103.679 6.68047 93.1109 6.68047C74.9227 6.68047 60.1258 21.4781 60.1258 39.6656C60.125 43.125 62.9297 45.9289 66.3883 45.9289ZM153.236 12.5258C166.046 12.5258 176.812 21.4469 179.646 33.4023H126.825C129.66 21.4469 140.426 12.5258 153.236 12.5258ZM93.1109 19.207C102.209 19.207 109.938 25.175 112.59 33.4031H73.632C76.2828 25.175 84.0125 19.207 93.1109 19.207Z" fill="black" fill-opacity="0.84"/>
<path d="M132.777 106.472C132.777 84.6008 114.982 66.8063 93.1109 66.8063C78.625 66.8063 65.9344 74.6156 59.0109 86.2414C52.9703 78.4875 43.5539 73.4867 32.9859 73.4867C14.7977 73.4867 0 88.2836 0 106.472C0 109.93 2.80391 112.735 6.26328 112.735H126.514C129.973 112.735 132.777 109.93 132.777 106.472ZM13.5062 100.209C16.1578 91.9805 23.8875 86.0125 32.9852 86.0125C42.0828 86.0125 49.8125 91.9805 52.4641 100.209H13.5062ZM66.7008 100.209C69.5351 88.2531 80.3008 79.3321 93.1109 79.3321C105.921 79.3321 116.687 88.2531 119.521 100.209H66.7008Z" fill="black" fill-opacity="0.84"/>
</g>
<defs>
<clipPath id="clip0_109_63">
<rect width="400" height="400" fill="white"/>
</clipPath>
</defs>
</svg>
